<svg width="160" height="33.6" xmlns="http://www.w3.org/2000/svg">
 <defs>
  <linearGradient id="A" x1="0.774891" y1="0.310992" x2="0.226413" y2="0.696107">
   <stop offset="0" stop-color="#fc5b3f"/>
   <stop offset="0.284" stop-color="#f8573d"/>
   <stop offset="0.579" stop-color="#eb4b38"/>
   <stop offset="0.877" stop-color="#d73730"/>
   <stop offset="1" stop-color="#cc2c2c"/>
  </linearGradient>
  <linearGradient id="B" x1="0.159022" y1="0.630692" x2="0.805978" y2="0.366385">
   <stop offset="0" stop-color="#fc5b3f"/>
   <stop offset="0.284" stop-color="#f8573d"/>
   <stop offset="0.579" stop-color="#eb4b38"/>
   <stop offset="0.877" stop-color="#d73730"/>
   <stop offset="1" stop-color="#cc2c2c"/>
  </linearGradient>
 </defs>
 <g>
  <title>background</title>
  <rect x="-1" y="-1" width="162" height="35.6" id="canvas_background" fill="none"/>
 </g>
 <g>
  <title>Layer 1</title>
  <path d="m31.2,5.6l-1,1.1l2.5,6.4l3.9,3.5l2.8,-3.4l-1.7,-5.2l-4.4,-4.5c-0.8,0.7 -1.5,1.3 -2.1,2.1z" fill="url(#A)" id="svg_1"/>
  <path d="m39.5,13.1c1.1,-1.2 2.5,-1.9 4,-1.9c2.2,0 5.7,1.5 5.7,5.6s-3.5,5.6 -5.7,5.6c-1.5,0 -2.9,-0.6 -4,-1.9l-2.8,-4l-6.5,-9.9l-1.3,11.4l1.3,8.9l1,1.1c2.4,2.7 5.5,4.5 8.9,5.2c3.2,0.7 6.5,0.4 9.6,-0.8s5.7,-3.2 7.6,-5.8c2,-2.8 3.1,-6.2 3.1,-9.8s-1.1,-7 -3.1,-9.8c-1.9,-2.6 -4.5,-4.6 -7.6,-5.8s-6.4,-1.5 -9.6,-0.8c-2.5,0.5 -4.8,1.6 -6.8,3.2l6.2,9.5z" fill="#fc5b3f" id="svg_2"/>
  <path d="m29.2,28.1l1,-1.1l-2.5,-6.4l-3.9,-3.5l-2.8,3.4l1.7,5.1l4.4,4.5c0.7,-0.6 1.5,-1.3 2.1,-2z" fill="url(#B)" id="svg_3"/>
  <path d="m20.9,20.5c-1.1,1.2 -2.5,1.9 -4,1.9c-2.2,0 -5.7,-1.5 -5.7,-5.6s3.5,-5.6 5.7,-5.6c1.5,0 2.9,0.6 4,1.9l2.8,4l6.5,9.9l0,-20.4l-1,-1.1c-2.4,-2.7 -5.5,-4.5 -8.9,-5.2c-3.2,-0.7 -6.5,-0.4 -9.6,0.8s-5.7,3.2 -7.6,5.9c-2,2.8 -3.1,6.2 -3.1,9.8s1.1,7 3.1,9.8c1.9,2.6 4.5,4.6 7.6,5.8s6.4,1.5 9.6,0.8c2.5,-0.5 4.8,-1.6 6.8,-3.2l-6.2,-9.5z" fill="#fc5b3f" id="svg_4"/>
  <path d="m58.78487,57.51308l0,-20.1l4.2,0l0,16.6l8.6,0l0,3.5l-12.8,0zm19.9,-20.1l0,20.1l-4.2,0l0,-20.1l4.2,0zm21.9,10c0,2.2 -0.4,4.1 -1.2,5.6s-1.9,2.7 -3.4,3.5c-1.4,0.8 -3,1.2 -4.8,1.2s-3.4,-0.4 -4.8,-1.2s-2.5,-2 -3.4,-3.5s-1.2,-3.4 -1.2,-5.6s0.4,-4.1 1.2,-5.6c0.9,-1.5 2,-2.7 3.4,-3.5s3,-1.2 4.8,-1.2s3.4,0.4 4.8,1.2s2.5,2 3.4,3.5c0.8,1.6 1.2,3.4 1.2,5.6zm-4.3,0c0,-1.4 -0.2,-2.6 -0.6,-3.6s-1,-1.7 -1.8,-2.2s-1.7,-0.8 -2.7,-0.8s-1.9,0.2 -2.7,0.8c-0.8,0.5 -1.4,1.2 -1.8,2.2s-0.6,2.2 -0.6,3.6s0.2,2.6 0.6,3.6s1,1.7 1.8,2.2s1.7,0.8 2.7,0.8s1.9,-0.2 2.7,-0.8c0.8,-0.5 1.4,-1.2 1.8,-2.2s0.6,-2.2 0.6,-3.6zm-6.6,3.1l3.6,0l1.8,2.3l1.8,2.1l3.4,4.2l-4,0l-2.3,-2.8l-1.2,-1.7l-3.1,-4.1zm26.4,-13.1l4.2,0l0,13c0,1.5 -0.3,2.7 -1,3.8s-1.7,1.9 -2.9,2.6c-1.2,0.6 -2.7,0.9 -4.4,0.9s-3.1,-0.3 -4.4,-0.9c-1.2,-0.6 -2.2,-1.5 -2.9,-2.6s-1,-2.4 -1,-3.8l0,-13l4.2,0l0,12.7c0,0.8 0.2,1.4 0.5,2a3.16,3.16 0 0 0 1.4,1.4c0.6,0.3 1.3,0.5 2.2,0.5c0.8,0 1.5,-0.2 2.2,-0.5a3.16,3.16 0 0 0 1.4,-1.4c0.3,-0.6 0.5,-1.3 0.5,-2l0,-12.7zm12,0l0,20.1l-4.2,0l0,-20.1l4.2,0zm10.6,20.1l-7.1,0l0,-20.1l7.2,0c2,0 3.7,0.4 5.2,1.2a7.97,7.97 0 0 1 3.4,3.4c0.8,1.5 1.2,3.3 1.2,5.4s-0.4,3.9 -1.2,5.4s-1.9,2.6 -3.4,3.5c-1.5,0.8 -3.3,1.2 -5.3,1.2zm-2.9,-3.7l2.7,0c1.3,0 2.3,-0.2 3.2,-0.7c0.9,-0.4 1.5,-1.1 1.9,-2.1c0.4,-0.9 0.6,-2.2 0.6,-3.7s-0.2,-2.7 -0.6,-3.6s-1.1,-1.6 -1.9,-2.1c-0.9,-0.4 -1.9,-0.7 -3.2,-0.7l-2.7,0l0,12.9z" fill="#fff" id="svg_5"/>
  <text fill="#444444" stroke-width="0" stroke-opacity="null" x="18.897691" y="24.998796" id="svg_6" font-size="24" font-family="Helvetica, Arial, sans-serif" text-anchor="start" xml:space="preserve" transform="matrix(0.6605706939258266,0,0,0.7874983563835746,56.40244509248633,3.508379222381328) " stroke="null" font-weight="bold">TOPTRADE</text>
 </g>
</svg>